<?xml version="1.0" encoding="UTF-8" standalone="no"?>
<svg
   xmlns:ooo="http://xml.openoffice.org/svg/export"
   xmlns:dc="http://purl.org/dc/elements/1.1/"
   xmlns:cc="http://creativecommons.org/ns#"
   xmlns:rdf="http://www.w3.org/1999/02/22-rdf-syntax-ns#"
   xmlns:svg="http://www.w3.org/2000/svg"
   xmlns="http://www.w3.org/2000/svg"
   xmlns:sodipodi="http://sodipodi.sourceforge.net/DTD/sodipodi-0.dtd"
   xmlns:inkscape="http://www.inkscape.org/namespaces/inkscape"
   version="1.2"
   width="199.24001mm"
   height="199.24001mm"
   viewBox="0 0 19924.001 19924.001"
   preserveAspectRatio="xMidYMid"
   xml:space="preserve"
   id="svg131"
   sodipodi:docname="france-bleu.svg"
   style="fill-rule:evenodd;stroke-width:28.22200012;stroke-linejoin:round"
   inkscape:version="0.92.5 (2060ec1f9f, 2020-04-08)"><metadata
   id="metadata135"><rdf:RDF><cc:Work
       rdf:about=""><dc:format>image/svg+xml</dc:format><dc:type
         rdf:resource="http://purl.org/dc/dcmitype/StillImage" /><dc:title></dc:title></cc:Work></rdf:RDF></metadata><sodipodi:namedview
   pagecolor="#ffffff"
   bordercolor="#666666"
   borderopacity="1"
   objecttolerance="10"
   gridtolerance="10"
   guidetolerance="10"
   inkscape:pageopacity="0"
   inkscape:pageshadow="2"
   inkscape:window-width="1854"
   inkscape:window-height="1054"
   id="namedview133"
   showgrid="false"
   fit-margin-top="0"
   fit-margin-left="0"
   fit-margin-right="0"
   fit-margin-bottom="0"
   inkscape:zoom="0.29734127"
   inkscape:cx="376.28976"
   inkscape:cy="376.74332"
   inkscape:window-x="66"
   inkscape:window-y="0"
   inkscape:window-maximized="1"
   inkscape:current-layer="g122" />
 <defs
   class="ClipPathGroup"
   id="defs5">
  <clipPath
   id="presentation_clip_path"
   clipPathUnits="userSpaceOnUse">
   <rect
   x="0"
   y="0"
   width="21000"
   height="21000"
   id="rect2" />
  </clipPath>
 
  
 </defs>
 <defs
   class="TextShapeIndex"
   id="defs9">
  <g
   ooo:slide="id1"
   ooo:id-list="id3 id4 id5 id6 id7 id8 id9 id10 id11 id12 id13 id14 id15 id16 id17"
   id="g7" />
 </defs>
 <defs
   class="EmbeddedBulletChars"
   id="defs38">
  <g
   id="bullet-char-template(57356)"
   transform="matrix(4.8828125e-4,0,0,-4.8828125e-4,0,0)">
   <path
   d="M 580,1141 1163,571 580,0 -4,571 Z"
   id="path11"
   inkscape:connector-curvature="0" />
  </g>
  <g
   id="bullet-char-template(57354)"
   transform="matrix(4.8828125e-4,0,0,-4.8828125e-4,0,0)">
   <path
   d="M 8,1128 H 1137 V 0 H 8 Z"
   id="path14"
   inkscape:connector-curvature="0" />
  </g>
  <g
   id="bullet-char-template(10146)"
   transform="matrix(4.8828125e-4,0,0,-4.8828125e-4,0,0)">
   <path
   d="M 174,0 602,739 174,1481 1456,739 Z M 1358,739 309,1346 659,739 Z"
   id="path17"
   inkscape:connector-curvature="0" />
  </g>
  <g
   id="bullet-char-template(10132)"
   transform="matrix(4.8828125e-4,0,0,-4.8828125e-4,0,0)">
   <path
   d="M 2015,739 1276,0 H 717 l 543,543 H 174 v 393 h 1086 l -543,545 h 557 z"
   id="path20"
   inkscape:connector-curvature="0" />
  </g>
  <g
   id="bullet-char-template(10007)"
   transform="matrix(4.8828125e-4,0,0,-4.8828125e-4,0,0)">
   <path
   d="m 0,-2 c -7,16 -16,29 -25,39 l 381,530 c -94,256 -141,385 -141,387 0,25 13,38 40,38 9,0 21,-2 34,-5 21,4 42,12 65,25 l 27,-13 111,-251 280,301 64,-25 24,25 c 21,-10 41,-24 62,-43 C 886,937 835,863 770,784 769,783 710,716 594,584 L 774,223 c 0,-27 -21,-55 -63,-84 l 16,-20 C 717,90 699,76 672,76 641,76 570,178 457,381 L 164,-76 c -22,-34 -53,-51 -92,-51 -42,0 -63,17 -64,51 -7,9 -10,24 -10,44 0,9 1,19 2,30 z"
   id="path23"
   inkscape:connector-curvature="0" />
  </g>
  <g
   id="bullet-char-template(10004)"
   transform="matrix(4.8828125e-4,0,0,-4.8828125e-4,0,0)">
   <path
   d="M 285,-33 C 182,-33 111,30 74,156 52,228 41,333 41,471 c 0,78 14,145 41,201 34,71 87,106 158,106 53,0 88,-31 106,-94 l 23,-176 c 8,-64 28,-97 59,-98 l 735,706 c 11,11 33,17 66,17 42,0 63,-15 63,-46 V 965 c 0,-36 -10,-64 -30,-84 L 442,47 C 390,-6 338,-33 285,-33 Z"
   id="path26"
   inkscape:connector-curvature="0" />
  </g>
  <g
   id="bullet-char-template(9679)"
   transform="matrix(4.8828125e-4,0,0,-4.8828125e-4,0,0)">
   <path
   d="M 813,0 C 632,0 489,54 383,161 276,268 223,411 223,592 c 0,181 53,324 160,431 106,107 249,161 430,161 179,0 323,-54 432,-161 108,-107 162,-251 162,-431 0,-180 -54,-324 -162,-431 C 1136,54 992,0 813,0 Z"
   id="path29"
   inkscape:connector-curvature="0" />
  </g>
  <g
   id="bullet-char-template(8226)"
   transform="matrix(4.8828125e-4,0,0,-4.8828125e-4,0,0)">
   <path
   d="m 346,457 c -73,0 -137,26 -191,78 -54,51 -81,114 -81,188 0,73 27,136 81,188 54,52 118,78 191,78 73,0 134,-26 185,-79 51,-51 77,-114 77,-187 0,-75 -25,-137 -76,-188 -50,-52 -112,-78 -186,-78 z"
   id="path32"
   inkscape:connector-curvature="0" />
  </g>
  <g
   id="bullet-char-template(8211)"
   transform="matrix(4.8828125e-4,0,0,-4.8828125e-4,0,0)">
   <path
   d="M -4,459 H 1135 V 606 H -4 Z"
   id="path35"
   inkscape:connector-curvature="0" />
  </g>
 </defs>
 <defs
   class="TextEmbeddedBitmaps"
   id="defs40" />
 <g
   id="g45"
   transform="translate(-544,-544)">
  <g
   id="id2"
   class="Master_Slide">
   <g
   id="bg-id2"
   class="Background" />
   <g
   id="bo-id2"
   class="BackgroundObjects" />
  </g>
 </g>
 <g
   id="g127"
   transform="translate(-544,-544)">
   <g
   clip-path="url(#presentation_clip_path)"
   class="Slide"
   id="id1">
    <g
   id="g124"
   class="Page">
     <g
   id="g122"
   class="Group">
      
      <g
   id="g55"
   class="com.sun.star.drawing.PolyPolygonShape">
       <g
   id="id4">
        <path
   style="fill:#231f20;stroke:none"
   inkscape:connector-curvature="0"
   id="path52"
   d="M 544,3754 H 17257 V 20468 H 544 Z" />
       </g>
      </g>
      <g
   id="g60"
   class="com.sun.star.drawing.ClosedBezierShape">
       <g
   id="id5">
        <path
   style="fill:#ffffff;stroke:none"
   inkscape:connector-curvature="0"
   id="path57"
   d="m 3018,16216 742,-57 v 1098 h 622 c 391,0 753,114 793,589 28,363 -198,606 -402,640 -243,0 -170,0 -504,0 113,0 430,-198 362,-470 -68,-255 -288,-260 -498,-272 -209,-11 -1104,-56 -1104,-56 z" />
       </g>
      </g>
      <g
   id="g65"
   class="com.sun.star.drawing.ClosedBezierShape">
       <g
   id="id6">
        <path
   style="fill:#ffffff;stroke:none"
   inkscape:connector-curvature="0"
   id="path62"
   d="m 2011,17546 c -136,159 -272,408 -193,685 227,770 1467,1121 1982,1138 l -57,-911 c 0,0 -843,113 -1268,-334 -187,-187 -147,-385 -6,-555 -164,-11 -351,-23 -458,-23 z" />
       </g>
      </g>
      <g
   id="g70"
   class="com.sun.star.drawing.PolyPolygonShape">
       <g
   id="id7">
        <path
   style="fill:#127bca;stroke:none"
   inkscape:connector-curvature="0"
   id="path67"
   d="M 3754,544 H 20468 V 17257 H 3754 Z" />
       </g>
      </g>
      <g
   id="g75"
   class="com.sun.star.drawing.ClosedBezierShape">
       <g
   id="id8">
        <path
   style="fill:#ffffff;stroke:none"
   inkscape:connector-curvature="0"
   id="path72"
   d="m 5951,14477 c 0,261 11,555 158,787 130,204 323,329 578,329 770,0 770,-985 770,-1501 0,-526 0,-1511 -753,-1511 -663,0 -753,713 -753,1217 z M 4569,10078 h 1365 v 2254 h 34 c 232,-465 622,-691 1155,-691 1347,0 1761,1342 1761,2451 0,1240 -499,2458 -1920,2458 -679,0 -1002,-255 -1347,-821 -170,204 -221,475 -306,724 h -742 z" />
       </g>
      </g>
      <g
   id="g80"
   class="com.sun.star.drawing.PolyPolygonShape">
       <g
   id="id9">
        <path
   style="fill:#ffffff;stroke:none"
   inkscape:connector-curvature="0"
   id="path77"
   d="m 9155,10078 h 1370 v 6375 H 9155 Z" />
       </g>
      </g>
      <g
   id="g85"
   class="com.sun.star.drawing.ClosedBezierShape">
       <g
   id="id10">
        <path
   style="fill:#ffffff;stroke:none"
   inkscape:connector-curvature="0"
   id="path82"
   d="m 13974,13521 c -29,-510 -199,-986 -799,-986 -600,0 -832,448 -883,986 z m -1671,804 -11,232 c 0,560 317,1013 912,1013 424,0 843,-306 843,-741 l 1263,90 c 0,232 -549,1631 -2152,1631 -1410,0 -2332,-985 -2332,-2390 0,-1392 826,-2525 2293,-2525 668,0 1347,306 1738,844 391,538 492,1206 481,1846 z" />
       </g>
      </g>
      <g
   id="g90"
   class="com.sun.star.drawing.ClosedBezierShape">
       <g
   id="id11">
        <path
   style="fill:#ffffff;stroke:none"
   inkscape:connector-curvature="0"
   id="path87"
   d="m 18402,16453 v -815 h -17 c -221,595 -708,912 -1353,912 -476,0 -883,-108 -1149,-538 -261,-408 -233,-855 -233,-1308 v -2973 h 1365 v 2973 c 0,379 34,742 521,742 311,0 572,-176 691,-453 90,-215 73,-487 73,-725 v -2537 h 1365 v 4722 z" />
       </g>
      </g>
      <g
   id="g95"
   class="com.sun.star.drawing.ClosedBezierShape">
       <g
   id="id12">
        <path
   style="fill:#ffffff;stroke:none"
   inkscape:connector-curvature="0"
   id="path92"
   d="m 11624,10961 h -476 V 9716 h -192 v -374 h 192 c 0,-147 -5,-317 74,-441 102,-153 289,-221 464,-221 40,0 181,5 283,22 v 368 c -73,-5 -107,-5 -181,-5 -164,0 -164,96 -164,238 v 39 h 300 v 374 h -300 z" />
       </g>
      </g>
      <g
   id="g100"
   class="com.sun.star.drawing.ClosedBezierShape">
       <g
   id="id13">
        <path
   style="fill:#ffffff;stroke:none"
   inkscape:connector-curvature="0"
   id="path97"
   d="m 12558,9298 v 311 h 6 c 51,-175 147,-362 362,-345 l 79,6 v 481 c -368,-17 -413,277 -413,572 v 640 h -481 V 9298 Z" />
       </g>
      </g>
      <g
   id="g105"
   class="com.sun.star.drawing.ClosedBezierShape">
       <g
   id="id14">
        <path
   style="fill:#ffffff;stroke:none"
   inkscape:connector-curvature="0"
   id="path102"
   d="m 14092,10169 c -181,17 -515,62 -515,300 0,136 74,221 210,221 96,0 187,-51 243,-136 68,-108 62,-204 62,-323 z m 46,792 c -17,-84 -23,-175 -23,-260 -136,198 -277,294 -526,294 -301,0 -527,-158 -527,-470 0,-249 153,-413 374,-492 192,-74 453,-85 656,-108 v -39 c 0,-68 6,-153 -39,-215 -45,-57 -125,-80 -198,-80 -153,0 -289,80 -289,238 l -459,-40 c 51,-402 448,-526 799,-526 169,0 390,45 526,158 170,136 153,317 153,516 v 775 c 0,85 6,170 28,249 z" />
       </g>
      </g>
      <g
   id="g110"
   class="com.sun.star.drawing.ClosedBezierShape">
       <g
   id="id15">
        <path
   style="fill:#ffffff;stroke:none"
   inkscape:connector-curvature="0"
   id="path107"
   d="m 14823,9297 h 453 v 283 h 5 c 102,-215 238,-317 482,-317 158,0 311,51 413,187 91,119 91,328 91,481 v 1030 h -482 v -894 c 0,-170 23,-419 -226,-419 -85,0 -164,45 -198,124 -51,91 -57,187 -57,295 v 894 h -481 z" />
       </g>
      </g>
      <g
   id="g115"
   class="com.sun.star.drawing.ClosedBezierShape">
       <g
   id="id16">
        <path
   style="fill:#ffffff;stroke:none"
   inkscape:connector-curvature="0"
   id="path112"
   d="m 17518,9931 c 0,-147 -79,-294 -249,-294 -266,0 -300,260 -300,469 0,204 5,493 277,493 170,0 255,-136 272,-289 l 459,29 c -40,407 -351,656 -753,656 -510,0 -810,-356 -810,-849 0,-509 311,-883 838,-883 385,0 691,255 725,645 z" />
       </g>
      </g>
      <g
   id="g120"
   class="com.sun.star.drawing.ClosedBezierShape">
       <g
   id="id17">
        <path
   style="fill:#ffffff;stroke:none"
   inkscape:connector-curvature="0"
   id="path117"
   d="m 19183,9931 c -12,-181 -74,-345 -278,-345 -221,0 -300,152 -317,345 z m -595,283 v 79 c 0,199 108,357 323,357 147,0 294,-108 294,-260 l 447,34 c 0,79 -192,571 -758,571 -498,0 -821,-345 -821,-838 0,-492 289,-894 809,-894 233,0 470,113 606,300 142,192 176,425 170,651 z" />
       </g>
      </g>
     </g>
    </g>
   </g>
  </g>
</svg>