<?xml version="1.0" encoding="UTF-8" standalone="no"?>
<!-- Created with Inkscape (http://www.inkscape.org/) -->

<svg
   xmlns:dc="http://purl.org/dc/elements/1.1/"
   xmlns:cc="http://creativecommons.org/ns#"
   xmlns:rdf="http://www.w3.org/1999/02/22-rdf-syntax-ns#"
   xmlns:svg="http://www.w3.org/2000/svg"
   xmlns="http://www.w3.org/2000/svg"
   xmlns:sodipodi="http://sodipodi.sourceforge.net/DTD/sodipodi-0.dtd"
   xmlns:inkscape="http://www.inkscape.org/namespaces/inkscape"
   version="1.0"
   width="1000"
   height="1000"
   id="svg1940"
   inkscape:version="0.92.5 (2060ec1f9f, 2020-04-08)"
   sodipodi:docname="SWR1.svg"
   inkscape:export-filename="swr1.png"
   inkscape:export-xdpi="95.904099"
   inkscape:export-ydpi="95.904099">
  <metadata
     id="metadata3759">
    <rdf:RDF>
      <cc:Work
         rdf:about="">
        <dc:format>image/svg+xml</dc:format>
        <dc:type
           rdf:resource="http://purl.org/dc/dcmitype/StillImage" />
        <dc:title></dc:title>
      </cc:Work>
    </rdf:RDF>
  </metadata>
  <sodipodi:namedview
     pagecolor="#ffffff"
     bordercolor="#666666"
     borderopacity="1"
     objecttolerance="10"
     gridtolerance="10"
     guidetolerance="10"
     inkscape:pageopacity="0"
     inkscape:pageshadow="2"
     inkscape:window-width="1854"
     inkscape:window-height="1054"
     id="namedview3757"
     showgrid="false"
     fit-margin-top="0"
     fit-margin-left="0"
     fit-margin-right="0"
     fit-margin-bottom="0"
     inkscape:zoom="0.37991454"
     inkscape:cx="232.33917"
     inkscape:cy="109.32378"
     inkscape:window-x="66"
     inkscape:window-y="0"
     inkscape:window-maximized="1"
     inkscape:current-layer="Ebene_x0020_1" />
  <defs
     id="defs1942" />
  <g
     id="layer1"
     transform="translate(-17.71707,766.66048)"
     style="display:inline">
    <g
       transform="matrix(3.543307,0,0,3.543307,5.348261e-4,2.070312e-6)"
       style="display:inline;fill-rule:evenodd"
       id="Ebene_x0020_1">
      <rect
         style="fill:#fdcc00;fill-opacity:1;stroke:#3b8df1;stroke-width:0.28222224;stroke-opacity:1"
         id="rect825"
         width="282.22223"
         height="282.22223"
         x="5"
         y="-216.36864" />
      <g
         id="_161203592"
         style="fill:#ffffff">
        <g
           id="g820"
           transform="matrix(0.92684548,0,0,0.92684548,11.180884,-10.725699)"
           style="fill:#ffffff">
          <path
             inkscape:connector-curvature="0"
             id="_47674320"
             style="fill:#ffffff"
             d="M 268.33157,-87.261571 V -98.69524 c -2.83973,-0.577473 -6.36,-1.15346 -9.31183,-1.38413 v -46.53767 h -13.17433 l -17.83148,6.70015 2.61038,13.85478 10.79106,-4.50228 v 30.48502 c -4.43016,0.23067 -8.40397,0.806657 -11.69511,1.38413 v 11.433669 z" />
          <path
             inkscape:connector-curvature="0"
             id="_160597816"
             style="fill:#ffffff;fill-opacity:1"
             d="m 22.828571,-146.22726 v 19.6914 l 10.5753,10.5787 -10.5753,10.572 v 19.695903 l 30.0189,-30.267903 z m 26.9731,0 v 19.6914 l 10.5756,10.5787 -10.5756,10.572 v 19.695903 l 30.0211,-30.267903 z" />
          <path
             inkscape:connector-curvature="0"
             id="_47830520"
             style="fill:#ffffff;fill-opacity:1"
             d="m 225.77657,-88.736457 h -15.3116 l -12.9736,-21.290303 h -0.4878 v 21.290303 h -12.5973 v -54.473403 c 4.6075,-0.3233 10.4983,-0.406 17.06,-0.406 12.8746,0 20.3824,4.6164 20.3824,16.1708 0,7.3371 -4.5185,13.3061 -11.7881,15.0808 1.4504,2.0949 2.8277,4.1121 4.2001,6.1294 z m -16.849,-37.658203 c 0,-4.2746 -2.5139,-6.853 -8.4363,-6.853 -1.2979,0 -2.7574,0.0806 -3.488,0.1599 l 3e-4,13.9492 c 0.6476,0.0807 1.9455,0.1608 3.1632,0.1608 5.3542,0 8.7608,-2.8196 8.7608,-7.4169 z m -40.2768,-16.8094 -5.4913,33.7343 -5.492,-33.7343 h -2.8774 -6.9245 -2.8774 l -5.4902,33.7343 -5.4911,-33.7343 h -12.688 l 9.6303,54.492603 h 4.4097 8.2766 1.5253 l 6.1684,-34.974503 6.166,34.974503 h 1.5271 8.2771 4.4098 l 9.6301,-54.492603 z m -69.187699,55.291703 c -3.789,0 -7.7558,-0.406 -11.2207,-1.2169 l 0.5592,-11.933403 c 3.0618,1.131403 7.6801,2.305603 11.631099,2.305603 4.62,0 7.9423,-1.939103 7.9423,-5.812903 0,-9.2844 -21.396499,-4.6851 -21.809699,-22.7665 -0.231,-10.2397 8.0619,-17.0028 21.729499,-17.0028 2.9028,0 6.5286,0.3231 9.9135,0.9662 l -0.0247,11.1187 c -3.0642,-0.8876 -7.1476,-1.7009 -10.3749,-1.7009 -5.2696,-2e-4 -7.7832,2.2596 -7.7832,5.3281 0,8.4759 21.8102,5.2465 21.8102,22.2796 0,10.584403 -8.4617,18.435203 -22.372599,18.435203 z" />
        </g>
      </g>
    </g>
  </g>
</svg>
