<?xml version="1.0" encoding="UTF-8" standalone="no"?>
<!-- Created with Inkscape (http://www.inkscape.org/) -->

<svg
   xmlns:dc="http://purl.org/dc/elements/1.1/"
   xmlns:cc="http://creativecommons.org/ns#"
   xmlns:rdf="http://www.w3.org/1999/02/22-rdf-syntax-ns#"
   xmlns:svg="http://www.w3.org/2000/svg"
   xmlns="http://www.w3.org/2000/svg"
   xmlns:sodipodi="http://sodipodi.sourceforge.net/DTD/sodipodi-0.dtd"
   xmlns:inkscape="http://www.inkscape.org/namespaces/inkscape"
   version="1.0"
   width="1000"
   height="1000"
   id="svg1940"
   inkscape:version="0.92.5 (2060ec1f9f, 2020-04-08)"
   sodipodi:docname="swr2.svg"
   inkscape:export-filename="swr2.png"
   inkscape:export-xdpi="95.900002"
   inkscape:export-ydpi="95.900002">
  <metadata
     id="metadata3759">
    <rdf:RDF>
      <cc:Work
         rdf:about="">
        <dc:format>image/svg+xml</dc:format>
        <dc:type
           rdf:resource="http://purl.org/dc/dcmitype/StillImage" />
        <dc:title></dc:title>
      </cc:Work>
    </rdf:RDF>
  </metadata>
  <sodipodi:namedview
     pagecolor="#ffffff"
     bordercolor="#666666"
     borderopacity="1"
     objecttolerance="10"
     gridtolerance="10"
     guidetolerance="10"
     inkscape:pageopacity="0"
     inkscape:pageshadow="2"
     inkscape:window-width="1854"
     inkscape:window-height="1054"
     id="namedview3757"
     showgrid="false"
     fit-margin-top="0"
     fit-margin-left="0"
     fit-margin-right="0"
     fit-margin-bottom="0"
     inkscape:zoom="0.75982908"
     inkscape:cx="491.05541"
     inkscape:cy="469.69379"
     inkscape:window-x="66"
     inkscape:window-y="0"
     inkscape:window-maximized="1"
     inkscape:current-layer="Ebene_x0020_1" />
  <defs
     id="defs1942">
    <clipPath
       id="clipPath4472"
       clipPathUnits="userSpaceOnUse">
      <path
         inkscape:connector-curvature="0"
         id="path4474"
         d="m 158.07,241.57 h 122.231 v 31.747 H 158.07 Z" />
    </clipPath>
  </defs>
  <g
     id="layer1"
     transform="translate(-17.71707,766.66048)"
     style="display:inline">
    <g
       transform="matrix(3.543307,0,0,3.543307,5.348261e-4,2.070312e-6)"
       style="display:inline;fill-rule:evenodd"
       id="Ebene_x0020_1">
      <rect
         style="fill:#fdcc00;fill-opacity:1;stroke:#3b8df1;stroke-width:0.28222224;stroke-opacity:1"
         id="rect825"
         width="282.22223"
         height="282.22223"
         x="5"
         y="-216.36864" />
      <g
         id="_161203592"
         style="fill:#ffffff">
        <g
           id="g820"
           transform="matrix(0.92684548,0,0,0.92684548,11.180884,-10.725699)"
           style="fill:#ffffff">
          <path
             inkscape:connector-curvature="0"
             id="_160597816"
             style="fill:#ffffff;fill-opacity:1"
             d="m 22.828571,-146.22726 v 19.6914 l 10.5753,10.5787 -10.5753,10.572 v 19.695903 l 30.0189,-30.267903 z m 26.9731,0 v 19.6914 l 10.5756,10.5787 -10.5756,10.572 v 19.695903 l 30.0211,-30.267903 z" />
          <path
             inkscape:connector-curvature="0"
             id="_47830520"
             style="fill:#ffffff;fill-opacity:1"
             d="m 225.77657,-88.736457 h -15.3116 l -12.9736,-21.290303 h -0.4878 v 21.290303 h -12.5973 v -54.473403 c 4.6075,-0.3233 10.4983,-0.406 17.06,-0.406 12.8746,0 20.3824,4.6164 20.3824,16.1708 0,7.3371 -4.5185,13.3061 -11.7881,15.0808 1.4504,2.0949 2.8277,4.1121 4.2001,6.1294 z m -16.849,-37.658203 c 0,-4.2746 -2.5139,-6.853 -8.4363,-6.853 -1.2979,0 -2.7574,0.0806 -3.488,0.1599 l 3e-4,13.9492 c 0.6476,0.0807 1.9455,0.1608 3.1632,0.1608 5.3542,0 8.7608,-2.8196 8.7608,-7.4169 z m -40.2768,-16.8094 -5.4913,33.7343 -5.492,-33.7343 h -2.8774 -6.9245 -2.8774 l -5.4902,33.7343 -5.4911,-33.7343 h -12.688 l 9.6303,54.492603 h 4.4097 8.2766 1.5253 l 6.1684,-34.974503 6.166,34.974503 h 1.5271 8.2771 4.4098 l 9.6301,-54.492603 z m -69.187699,55.291703 c -3.789,0 -7.7558,-0.406 -11.2207,-1.2169 l 0.5592,-11.933403 c 3.0618,1.131403 7.6801,2.305603 11.631099,2.305603 4.62,0 7.9423,-1.939103 7.9423,-5.812903 0,-9.2844 -21.396499,-4.6851 -21.809699,-22.7665 -0.231,-10.2397 8.0619,-17.0028 21.729499,-17.0028 2.9028,0 6.5286,0.3231 9.9135,0.9662 l -0.0247,11.1187 c -3.0642,-0.8876 -7.1476,-1.7009 -10.3749,-1.7009 -5.2696,-2e-4 -7.7832,2.2596 -7.7832,5.3281 0,8.4759 21.8102,5.2465 21.8102,22.2796 0,10.584403 -8.4617,18.435203 -22.372599,18.435203 z" />
        </g>
      </g>
      <g
         transform="matrix(0.24850603,0,0,0.24850603,104.28396,-243.5784)"
         id="layer1-3"
         style="fill:#ffffff">
        <g
           id="g4492"
           transform="matrix(7.4911357,0,0,-7.4911357,-1469.0871,2428.5465)"
           style="fill:#ffffff">
          <g
             id="g4468"
             style="fill:#ffffff">
            <g
               id="g4470"
               clip-path="url(#clipPath4472)"
               style="fill:#ffffff">
              <g
                 id="g4488"
                 transform="matrix(0.9289206,0,0,0.9289206,279.48335,242.55668)"
                 style="fill:#ffffff">
                <path
                   inkscape:connector-curvature="0"
                   d="m 0,0 v 6.744 c -4.125,0 -6.519,-0.003 -10.747,-0.158 l 3.005,3.063 c 4.227,4.098 6.774,7.834 6.774,12.606 0,5.032 -3.107,9.493 -10.39,9.493 -3.565,0 -6.468,-1.089 -8.811,-2.594 l 1.527,-6.173 c 1.58,1.297 3.668,2.231 5.705,2.231 2.7,0 4.024,-1.609 4.024,-4.255 0,-3.059 -1.681,-5.031 -8.149,-11.464 L -20.424,5.862 V 0 Z"
                   style="fill:#ffffff;fill-opacity:1;fill-rule:nonzero;stroke:none"
                   id="path4490" />
              </g>
            </g>
          </g>
        </g>
      </g>
      <path
         style="fill:#4472c2;fill-opacity:1;stroke:#3b8df1;stroke-width:1.31608546;stroke-opacity:1"
         d="M 1.734842,499.50981 V 0.71342066 H 500.53123 999.32762 V 499.50981 998.3062 H 500.53123 1.734842 Z M 147.0536,397.30977 c 26.48019,-26.89421 48.1458,-49.40223 48.1458,-50.01783 0,-0.61558 -22.20894,-23.32227 -49.3532,-50.45929 L 96.492995,247.4926 v 32.91455 32.91455 l 17.109785,17.0718 17.10978,17.0718 -17.10978,17.14508 -17.109785,17.14506 v 32.66515 c 0,19.2579 0.49557,32.48509 1.207399,32.22645 0.66407,-0.24128 22.873016,-22.44305 49.353206,-49.33727 z m 88.87799,-0.065 48.86985,-49.62169 -49.73635,-49.75049 -49.73633,-49.75048 -0.35264,32.53953 -0.35263,32.53953 17.44346,17.47944 17.44346,17.47938 -17.41984,17.45578 -17.41985,17.45577 v 31.89744 c 0,18.24294 0.51177,31.89742 1.19552,31.89742 0.65753,0 23.18694,-22.32976 50.06535,-49.6217 z m 665.70928,24.3935 -0.36162,-21.27995 -31.48686,0.32285 -31.48685,0.32284 9.32455,-10.29992 c 5.12851,-5.66498 11.5267,-12.37277 14.2182,-14.90624 13.66761,-12.86512 26.78663,-33.11809 31.30237,-48.32421 7.11994,-23.97546 1.72574,-49.75063 -13.36607,-63.86724 -7.37481,-6.89829 -13.4801,-10.2874 -24.60794,-13.66013 -10.7094,-3.24591 -36.02825,-3.24146 -47.99751,0.008 -10.57865,2.87233 -27.5314,10.85118 -28.51794,13.42204 -0.61469,1.60188 6.74404,34.77419 8.36314,37.70009 0.29033,0.52464 2.93339,-0.78864 5.87346,-2.91842 15.98414,-11.57886 38.52728,-12.93391 47.64074,-2.86365 3.32682,3.67612 5.99606,11.64535 6.0654,18.10888 0.15396,14.35034 -6.86141,25.64342 -32.21806,51.86341 -10.15131,10.49694 -23.0325,24.02046 -28.62486,30.05226 l -10.16793,10.96738 v 18.316 18.31598 h 63.2047 63.2047 l -0.36162,-21.27994 z m -522.84755,14.15117 c 12.84296,-4.36482 20.83265,-9.33081 28.91646,-17.97305 20.27125,-21.67162 19.44184,-57.89795 -1.70836,-74.61623 -3.47532,-2.74707 -11.58511,-7.34477 -18.02175,-10.2171 -26.05343,-11.62622 -32.50697,-15.43053 -35.25619,-20.78326 -2.23063,-4.34302 -2.37526,-5.73084 -1.05618,-10.13357 3.69119,-12.32009 20.54293,-15.79364 47.27799,-9.74515 13.07955,2.9591 12.09213,4.29765 12.09213,-16.39229 0,-17.80009 -0.0765,-18.2953 -2.96119,-19.18617 -1.62866,-0.50297 -12.21476,-1.24023 -23.52469,-1.63837 -16.33657,-0.57511 -22.5704,-0.27741 -30.32691,1.44826 -21.02628,4.6779 -36.93278,16.03599 -44.02041,31.43293 -3.38695,7.3577 -3.77101,9.59507 -3.78264,22.03575 -0.0118,13.01136 0.24838,14.37742 4.3196,22.64722 6.61023,13.4273 15.82432,20.2329 40.69376,30.05669 20.28908,8.01447 25.38426,12.72948 25.38426,23.49021 0,6.70048 -5.5876,13.47969 -12.92133,15.67694 -8.46376,2.53579 -22.36417,1.83978 -37.0084,-1.85309 -7.40776,-1.86804 -13.6317,-3.20058 -13.83098,-2.96119 -0.19928,0.23937 -0.72156,9.13271 -1.16059,19.76297 l -0.79826,19.32775 6.86708,1.35233 c 12.06919,2.37677 14.43085,2.53561 32.53077,2.18797 15.31721,-0.29421 19.21898,-0.83469 28.29583,-3.91955 z m 120.48294,0.8773 c 0.40298,-6.50735 19.544,-108.37636 20.09236,-106.93195 0.4122,1.08577 4.67303,24.47919 9.46853,51.98538 4.7955,27.50619 9.04011,51.34378 9.43249,52.97244 0.70681,2.9338 0.93101,2.96119 24.23521,2.96119 23.31348,0 23.52783,-0.0262 24.20383,-2.96119 1.17691,-5.10975 30.95415,-174.26839 30.95415,-175.84443 0,-1.05737 -6.16866,-1.49809 -20.96867,-1.49809 -18.84874,0 -21.03346,0.23286 -21.6093,2.30315 -0.35232,1.26674 -4.37244,25.60072 -8.93358,54.07553 -4.56113,28.47482 -8.43493,51.276 -8.60841,50.66929 -0.17349,-0.6067 -3.89606,-23.31203 -8.27236,-50.45629 -4.37632,-27.14426 -8.29644,-50.98186 -8.7114,-52.97244 l -0.75446,-3.61924 h -20.86411 c -18.74352,0 -20.93072,0.2341 -21.5195,2.30315 -0.36046,1.26674 -4.38719,25.58086 -8.9483,54.03141 -4.56109,28.45054 -8.43845,51.25172 -8.61634,50.66929 -0.1779,-0.58244 -3.89991,-23.26791 -8.27113,-50.41217 -4.37122,-27.14426 -8.28112,-50.98186 -8.68866,-52.97244 l -0.741,-3.61924 h -20.9528 c -15.87322,0 -20.95808,0.39883 -20.9746,1.64511 -0.0246,1.85372 30.21472,174.45388 31.0125,177.01349 0.38534,1.23631 6.40977,1.64511 24.2436,1.64511 13.05196,0 23.75834,-0.44418 23.79195,-0.98706 z m 169.75576,-34.21822 c 0.0378,-31.76753 0.237,-34.94826 2.0403,-32.57312 1.09914,1.44769 10.92048,17.29007 21.82521,35.20529 l 19.82678,32.57311 h 25.55831 c 23.93844,0 25.47935,-0.14597 24.31253,-2.30315 -0.68516,-1.26673 -11.95854,-18.47145 -25.05192,-38.2327 -13.09339,-19.76126 -23.80616,-36.11458 -23.80616,-36.34071 0,-0.22613 3.78541,-2.2747 8.41203,-4.55237 10.84744,-5.34017 18.61133,-13.15327 23.70763,-23.8579 3.82085,-8.02557 4.07269,-9.49045 4.07269,-23.68954 0,-13.55287 -0.35784,-15.89793 -3.42328,-22.43351 -4.6581,-9.93118 -10.18895,-15.87492 -19.23284,-20.66865 -15.33313,-8.12732 -29.96834,-9.945 -70.45692,-8.75061 l -29.94095,0.88324 v 89.97296 89.97294 h 21.05737 21.05737 z"
         id="path1457"
         inkscape:connector-curvature="0"
         transform="matrix(0.28222223,0,0,0.28222223,5,-216.36863)" />
      <path
         style="fill:#4472c2;fill-opacity:1;stroke:#3b8df1;stroke-width:1.31608546;stroke-opacity:1"
         d="m 669.97723,336.90045 c -0.54288,-0.56316 -0.98706,-10.99328 -0.98706,-23.17804 v -22.1541 l 8.88357,0.007 c 11.78103,0.01 17.99777,1.89617 23.81381,7.22618 4.71817,4.32387 4.81105,4.59965 4.81105,14.28425 0,11.50876 -2.10317,15.41041 -10.98034,20.36989 -5.63,3.14535 -23.50548,5.55605 -25.54103,3.44448 z"
         id="path1501"
         inkscape:connector-curvature="0"
         transform="matrix(0.28222223,0,0,0.28222223,5,-216.36863)" />
    </g>
  </g>
</svg>
